<?xml version="1.0" encoding="utf-8" standalone="no"?>
<!DOCTYPE svg PUBLIC "-//W3C//DTD SVG 1.1//EN"
  "http://www.w3.org/Graphics/SVG/1.1/DTD/svg11.dtd">
<!-- Created with matplotlib (http://matplotlib.org/) -->
<svg height="275pt" version="1.1" viewBox="0 0 403 275" width="403pt" xmlns="http://www.w3.org/2000/svg" xmlns:xlink="http://www.w3.org/1999/xlink">
 <defs>
  <style type="text/css">
*{stroke-linecap:butt;stroke-linejoin:round;}
  </style>
 </defs>
 <g id="figure_1">
  <g id="patch_1">
   <path d="M 0 275.449948 
L 403.964688 275.449948 
L 403.964688 0 
L 0 0 
z
" style="fill:#ffffff;"/>
  </g>
  <g id="axes_1">
   <g id="patch_2">
    <path d="M 39.644688 242.208 
L 396.764688 242.208 
L 396.764688 7.2 
L 39.644688 7.2 
z
" style="fill:#eaeaf2;"/>
   </g>
   <g id="matplotlib.axis_1">
    <g id="xtick_1">
     <g id="line2d_1">
      <path clip-path="url(#p2eca948626)" d="M 47.559607 242.208 
L 47.559607 7.2 
" style="fill:none;stroke:#ffffff;stroke-linecap:round;"/>
     </g>
     <g id="line2d_2"/>
     <g id="text_1">
      <!-- 2011 -->
      <defs>
       <path d="M 50.34375 8.453125 
L 50.34375 0 
L 3.03125 0 
Q 2.9375 3.171875 4.046875 6.109375 
Q 5.859375 10.9375 9.828125 15.625 
Q 13.8125 20.3125 21.34375 26.46875 
Q 33.015625 36.03125 37.109375 41.625 
Q 41.21875 47.21875 41.21875 52.203125 
Q 41.21875 57.421875 37.46875 61 
Q 33.734375 64.59375 27.734375 64.59375 
Q 21.390625 64.59375 17.578125 60.78125 
Q 13.765625 56.984375 13.71875 50.25 
L 4.6875 51.171875 
Q 5.609375 61.28125 11.65625 66.578125 
Q 17.71875 71.875 27.9375 71.875 
Q 38.234375 71.875 44.234375 66.15625 
Q 50.25 60.453125 50.25 52 
Q 50.25 47.703125 48.484375 43.546875 
Q 46.734375 39.40625 42.65625 34.8125 
Q 38.578125 30.21875 29.109375 22.21875 
Q 21.1875 15.578125 18.9375 13.203125 
Q 16.703125 10.84375 15.234375 8.453125 
z
" id="ArialMT-32"/>
       <path d="M 4.15625 35.296875 
Q 4.15625 48 6.765625 55.734375 
Q 9.375 63.484375 14.515625 67.671875 
Q 19.671875 71.875 27.484375 71.875 
Q 33.25 71.875 37.59375 69.546875 
Q 41.9375 67.234375 44.765625 62.859375 
Q 47.609375 58.5 49.21875 52.21875 
Q 50.828125 45.953125 50.828125 35.296875 
Q 50.828125 22.703125 48.234375 14.96875 
Q 45.65625 7.234375 40.5 3 
Q 35.359375 -1.21875 27.484375 -1.21875 
Q 17.140625 -1.21875 11.234375 6.203125 
Q 4.15625 15.140625 4.15625 35.296875 
z
M 13.1875 35.296875 
Q 13.1875 17.671875 17.3125 11.828125 
Q 21.4375 6 27.484375 6 
Q 33.546875 6 37.671875 11.859375 
Q 41.796875 17.71875 41.796875 35.296875 
Q 41.796875 52.984375 37.671875 58.78125 
Q 33.546875 64.59375 27.390625 64.59375 
Q 21.34375 64.59375 17.71875 59.46875 
Q 13.1875 52.9375 13.1875 35.296875 
z
" id="ArialMT-30"/>
       <path d="M 37.25 0 
L 28.46875 0 
L 28.46875 56 
Q 25.296875 52.984375 20.140625 49.953125 
Q 14.984375 46.921875 10.890625 45.40625 
L 10.890625 53.90625 
Q 18.265625 57.375 23.78125 62.296875 
Q 29.296875 67.234375 31.59375 71.875 
L 37.25 71.875 
z
" id="ArialMT-31"/>
      </defs>
      <g style="fill:#262626;" transform="translate(27.311677 266.523254)rotate(-30)scale(0.1 -0.1)">
       <use xlink:href="#ArialMT-32"/>
       <use x="55.615234" xlink:href="#ArialMT-30"/>
       <use x="111.230469" xlink:href="#ArialMT-31"/>
       <use x="166.736328" xlink:href="#ArialMT-31"/>
      </g>
     </g>
    </g>
    <g id="xtick_2">
     <g id="line2d_3">
      <path clip-path="url(#p2eca948626)" d="M 90.839694 242.208 
L 90.839694 7.2 
" style="fill:none;stroke:#ffffff;stroke-linecap:round;"/>
     </g>
     <g id="line2d_4"/>
     <g id="text_2">
      <!-- 2012 -->
      <g style="fill:#262626;" transform="translate(70.582291 266.528722)rotate(-30)scale(0.1 -0.1)">
       <use xlink:href="#ArialMT-32"/>
       <use x="55.615234" xlink:href="#ArialMT-30"/>
       <use x="111.230469" xlink:href="#ArialMT-31"/>
       <use x="166.845703" xlink:href="#ArialMT-32"/>
      </g>
     </g>
    </g>
    <g id="xtick_3">
     <g id="line2d_5">
      <path clip-path="url(#p2eca948626)" d="M 134.238356 242.208 
L 134.238356 7.2 
" style="fill:none;stroke:#ffffff;stroke-linecap:round;"/>
     </g>
     <g id="line2d_6"/>
     <g id="text_3">
      <!-- 2013 -->
      <defs>
       <path d="M 4.203125 18.890625 
L 12.984375 20.0625 
Q 14.5 12.59375 18.140625 9.296875 
Q 21.78125 6 27 6 
Q 33.203125 6 37.46875 10.296875 
Q 41.75 14.59375 41.75 20.953125 
Q 41.75 27 37.796875 30.921875 
Q 33.84375 34.859375 27.734375 34.859375 
Q 25.25 34.859375 21.53125 33.890625 
L 22.515625 41.609375 
Q 23.390625 41.5 23.921875 41.5 
Q 29.546875 41.5 34.03125 44.421875 
Q 38.53125 47.359375 38.53125 53.46875 
Q 38.53125 58.296875 35.25 61.46875 
Q 31.984375 64.65625 26.8125 64.65625 
Q 21.6875 64.65625 18.265625 61.421875 
Q 14.84375 58.203125 13.875 51.765625 
L 5.078125 53.328125 
Q 6.6875 62.15625 12.390625 67.015625 
Q 18.109375 71.875 26.609375 71.875 
Q 32.46875 71.875 37.390625 69.359375 
Q 42.328125 66.84375 44.9375 62.5 
Q 47.5625 58.15625 47.5625 53.265625 
Q 47.5625 48.640625 45.0625 44.828125 
Q 42.578125 41.015625 37.703125 38.765625 
Q 44.046875 37.3125 47.5625 32.6875 
Q 51.078125 28.078125 51.078125 21.140625 
Q 51.078125 11.765625 44.234375 5.25 
Q 37.40625 -1.265625 26.953125 -1.265625 
Q 17.53125 -1.265625 11.296875 4.34375 
Q 5.078125 9.96875 4.203125 18.890625 
z
" id="ArialMT-33"/>
      </defs>
      <g style="fill:#262626;" transform="translate(113.980953 266.528722)rotate(-30)scale(0.1 -0.1)">
       <use xlink:href="#ArialMT-32"/>
       <use x="55.615234" xlink:href="#ArialMT-30"/>
       <use x="111.230469" xlink:href="#ArialMT-31"/>
       <use x="166.845703" xlink:href="#ArialMT-33"/>
      </g>
     </g>
    </g>
    <g id="xtick_4">
     <g id="line2d_7">
      <path clip-path="url(#p2eca948626)" d="M 177.518442 242.208 
L 177.518442 7.2 
" style="fill:none;stroke:#ffffff;stroke-linecap:round;"/>
     </g>
     <g id="line2d_8"/>
     <g id="text_4">
      <!-- 2014 -->
      <defs>
       <path d="M 32.328125 0 
L 32.328125 17.140625 
L 1.265625 17.140625 
L 1.265625 25.203125 
L 33.9375 71.578125 
L 41.109375 71.578125 
L 41.109375 25.203125 
L 50.78125 25.203125 
L 50.78125 17.140625 
L 41.109375 17.140625 
L 41.109375 0 
z
M 32.328125 25.203125 
L 32.328125 57.46875 
L 9.90625 25.203125 
z
" id="ArialMT-34"/>
      </defs>
      <g style="fill:#262626;" transform="translate(157.261039 266.528722)rotate(-30)scale(0.1 -0.1)">
       <use xlink:href="#ArialMT-32"/>
       <use x="55.615234" xlink:href="#ArialMT-30"/>
       <use x="111.230469" xlink:href="#ArialMT-31"/>
       <use x="166.845703" xlink:href="#ArialMT-34"/>
      </g>
     </g>
    </g>
    <g id="xtick_5">
     <g id="line2d_9">
      <path clip-path="url(#p2eca948626)" d="M 220.798528 242.208 
L 220.798528 7.2 
" style="fill:none;stroke:#ffffff;stroke-linecap:round;"/>
     </g>
     <g id="line2d_10"/>
     <g id="text_5">
      <!-- 2015 -->
      <defs>
       <path d="M 4.15625 18.75 
L 13.375 19.53125 
Q 14.40625 12.796875 18.140625 9.390625 
Q 21.875 6 27.15625 6 
Q 33.5 6 37.890625 10.78125 
Q 42.28125 15.578125 42.28125 23.484375 
Q 42.28125 31 38.0625 35.34375 
Q 33.84375 39.703125 27 39.703125 
Q 22.75 39.703125 19.328125 37.765625 
Q 15.921875 35.84375 13.96875 32.765625 
L 5.71875 33.84375 
L 12.640625 70.609375 
L 48.25 70.609375 
L 48.25 62.203125 
L 19.671875 62.203125 
L 15.828125 42.96875 
Q 22.265625 47.46875 29.34375 47.46875 
Q 38.71875 47.46875 45.15625 40.96875 
Q 51.609375 34.46875 51.609375 24.265625 
Q 51.609375 14.546875 45.953125 7.46875 
Q 39.0625 -1.21875 27.15625 -1.21875 
Q 17.390625 -1.21875 11.203125 4.25 
Q 5.03125 9.71875 4.15625 18.75 
z
" id="ArialMT-35"/>
      </defs>
      <g style="fill:#262626;" transform="translate(200.541126 266.528722)rotate(-30)scale(0.1 -0.1)">
       <use xlink:href="#ArialMT-32"/>
       <use x="55.615234" xlink:href="#ArialMT-30"/>
       <use x="111.230469" xlink:href="#ArialMT-31"/>
       <use x="166.845703" xlink:href="#ArialMT-35"/>
      </g>
     </g>
    </g>
    <g id="xtick_6">
     <g id="line2d_11">
      <path clip-path="url(#p2eca948626)" d="M 264.078615 242.208 
L 264.078615 7.2 
" style="fill:none;stroke:#ffffff;stroke-linecap:round;"/>
     </g>
     <g id="line2d_12"/>
     <g id="text_6">
      <!-- 2016 -->
      <defs>
       <path d="M 49.75 54.046875 
L 41.015625 53.375 
Q 39.84375 58.546875 37.703125 60.890625 
Q 34.125 64.65625 28.90625 64.65625 
Q 24.703125 64.65625 21.53125 62.3125 
Q 17.390625 59.28125 14.984375 53.46875 
Q 12.59375 47.65625 12.5 36.921875 
Q 15.671875 41.75 20.265625 44.09375 
Q 24.859375 46.4375 29.890625 46.4375 
Q 38.671875 46.4375 44.84375 39.96875 
Q 51.03125 33.5 51.03125 23.25 
Q 51.03125 16.5 48.125 10.71875 
Q 45.21875 4.9375 40.140625 1.859375 
Q 35.0625 -1.21875 28.609375 -1.21875 
Q 17.625 -1.21875 10.6875 6.859375 
Q 3.765625 14.9375 3.765625 33.5 
Q 3.765625 54.25 11.421875 63.671875 
Q 18.109375 71.875 29.4375 71.875 
Q 37.890625 71.875 43.28125 67.140625 
Q 48.6875 62.40625 49.75 54.046875 
z
M 13.875 23.1875 
Q 13.875 18.65625 15.796875 14.5 
Q 17.71875 10.359375 21.1875 8.171875 
Q 24.65625 6 28.46875 6 
Q 34.03125 6 38.03125 10.484375 
Q 42.046875 14.984375 42.046875 22.703125 
Q 42.046875 30.125 38.078125 34.390625 
Q 34.125 38.671875 28.125 38.671875 
Q 22.171875 38.671875 18.015625 34.390625 
Q 13.875 30.125 13.875 23.1875 
z
" id="ArialMT-36"/>
      </defs>
      <g style="fill:#262626;" transform="translate(243.821212 266.528722)rotate(-30)scale(0.1 -0.1)">
       <use xlink:href="#ArialMT-32"/>
       <use x="55.615234" xlink:href="#ArialMT-30"/>
       <use x="111.230469" xlink:href="#ArialMT-31"/>
       <use x="166.845703" xlink:href="#ArialMT-36"/>
      </g>
     </g>
    </g>
    <g id="xtick_7">
     <g id="line2d_13">
      <path clip-path="url(#p2eca948626)" d="M 307.477277 242.208 
L 307.477277 7.2 
" style="fill:none;stroke:#ffffff;stroke-linecap:round;"/>
     </g>
     <g id="line2d_14"/>
     <g id="text_7">
      <!-- 2017 -->
      <defs>
       <path d="M 4.734375 62.203125 
L 4.734375 70.65625 
L 51.078125 70.65625 
L 51.078125 63.8125 
Q 44.234375 56.546875 37.515625 44.484375 
Q 30.8125 32.421875 27.15625 19.671875 
Q 24.515625 10.6875 23.78125 0 
L 14.75 0 
Q 14.890625 8.453125 18.0625 20.40625 
Q 21.234375 32.375 27.171875 43.484375 
Q 33.109375 54.59375 39.796875 62.203125 
z
" id="ArialMT-37"/>
      </defs>
      <g style="fill:#262626;" transform="translate(287.219874 266.528722)rotate(-30)scale(0.1 -0.1)">
       <use xlink:href="#ArialMT-32"/>
       <use x="55.615234" xlink:href="#ArialMT-30"/>
       <use x="111.230469" xlink:href="#ArialMT-31"/>
       <use x="166.845703" xlink:href="#ArialMT-37"/>
      </g>
     </g>
    </g>
    <g id="xtick_8">
     <g id="line2d_15">
      <path clip-path="url(#p2eca948626)" d="M 350.757363 242.208 
L 350.757363 7.2 
" style="fill:none;stroke:#ffffff;stroke-linecap:round;"/>
     </g>
     <g id="line2d_16"/>
     <g id="text_8">
      <!-- 2018 -->
      <defs>
       <path d="M 17.671875 38.8125 
Q 12.203125 40.828125 9.5625 44.53125 
Q 6.9375 48.25 6.9375 53.421875 
Q 6.9375 61.234375 12.546875 66.546875 
Q 18.171875 71.875 27.484375 71.875 
Q 36.859375 71.875 42.578125 66.421875 
Q 48.296875 60.984375 48.296875 53.171875 
Q 48.296875 48.1875 45.671875 44.5 
Q 43.0625 40.828125 37.75 38.8125 
Q 44.34375 36.671875 47.78125 31.875 
Q 51.21875 27.09375 51.21875 20.453125 
Q 51.21875 11.28125 44.71875 5.03125 
Q 38.234375 -1.21875 27.640625 -1.21875 
Q 17.046875 -1.21875 10.546875 5.046875 
Q 4.046875 11.328125 4.046875 20.703125 
Q 4.046875 27.6875 7.59375 32.390625 
Q 11.140625 37.109375 17.671875 38.8125 
z
M 15.921875 53.71875 
Q 15.921875 48.640625 19.1875 45.40625 
Q 22.46875 42.1875 27.6875 42.1875 
Q 32.765625 42.1875 36.015625 45.375 
Q 39.265625 48.578125 39.265625 53.21875 
Q 39.265625 58.0625 35.90625 61.359375 
Q 32.5625 64.65625 27.59375 64.65625 
Q 22.5625 64.65625 19.234375 61.421875 
Q 15.921875 58.203125 15.921875 53.71875 
z
M 13.09375 20.65625 
Q 13.09375 16.890625 14.875 13.375 
Q 16.65625 9.859375 20.171875 7.921875 
Q 23.6875 6 27.734375 6 
Q 34.03125 6 38.125 10.046875 
Q 42.234375 14.109375 42.234375 20.359375 
Q 42.234375 26.703125 38.015625 30.859375 
Q 33.796875 35.015625 27.4375 35.015625 
Q 21.234375 35.015625 17.15625 30.90625 
Q 13.09375 26.8125 13.09375 20.65625 
z
" id="ArialMT-38"/>
      </defs>
      <g style="fill:#262626;" transform="translate(330.49996 266.528722)rotate(-30)scale(0.1 -0.1)">
       <use xlink:href="#ArialMT-32"/>
       <use x="55.615234" xlink:href="#ArialMT-30"/>
       <use x="111.230469" xlink:href="#ArialMT-31"/>
       <use x="166.845703" xlink:href="#ArialMT-38"/>
      </g>
     </g>
    </g>
    <g id="xtick_9">
     <g id="line2d_17">
      <path clip-path="url(#p2eca948626)" d="M 394.037449 242.208 
L 394.037449 7.2 
" style="fill:none;stroke:#ffffff;stroke-linecap:round;"/>
     </g>
     <g id="line2d_18"/>
     <g id="text_9">
      <!-- 2019 -->
      <defs>
       <path d="M 5.46875 16.546875 
L 13.921875 17.328125 
Q 14.984375 11.375 18.015625 8.6875 
Q 21.046875 6 25.78125 6 
Q 29.828125 6 32.875 7.859375 
Q 35.9375 9.71875 37.890625 12.8125 
Q 39.84375 15.921875 41.15625 21.1875 
Q 42.484375 26.46875 42.484375 31.9375 
Q 42.484375 32.515625 42.4375 33.6875 
Q 39.796875 29.5 35.234375 26.875 
Q 30.671875 24.265625 25.34375 24.265625 
Q 16.453125 24.265625 10.296875 30.703125 
Q 4.15625 37.15625 4.15625 47.703125 
Q 4.15625 58.59375 10.578125 65.234375 
Q 17 71.875 26.65625 71.875 
Q 33.640625 71.875 39.421875 68.109375 
Q 45.21875 64.359375 48.21875 57.390625 
Q 51.21875 50.4375 51.21875 37.25 
Q 51.21875 23.53125 48.234375 15.40625 
Q 45.265625 7.28125 39.375 3.03125 
Q 33.5 -1.21875 25.59375 -1.21875 
Q 17.1875 -1.21875 11.859375 3.4375 
Q 6.546875 8.109375 5.46875 16.546875 
z
M 41.453125 48.140625 
Q 41.453125 55.71875 37.421875 60.15625 
Q 33.40625 64.59375 27.734375 64.59375 
Q 21.875 64.59375 17.53125 59.8125 
Q 13.1875 55.03125 13.1875 47.40625 
Q 13.1875 40.578125 17.3125 36.296875 
Q 21.4375 32.03125 27.484375 32.03125 
Q 33.59375 32.03125 37.515625 36.296875 
Q 41.453125 40.578125 41.453125 48.140625 
z
" id="ArialMT-39"/>
      </defs>
      <g style="fill:#262626;" transform="translate(373.780047 266.528722)rotate(-30)scale(0.1 -0.1)">
       <use xlink:href="#ArialMT-32"/>
       <use x="55.615234" xlink:href="#ArialMT-30"/>
       <use x="111.230469" xlink:href="#ArialMT-31"/>
       <use x="166.845703" xlink:href="#ArialMT-39"/>
      </g>
     </g>
    </g>
    <g id="xtick_10">
     <g id="line2d_19"/>
    </g>
    <g id="xtick_11">
     <g id="line2d_20"/>
    </g>
    <g id="xtick_12">
     <g id="line2d_21"/>
    </g>
    <g id="xtick_13">
     <g id="line2d_22"/>
    </g>
    <g id="xtick_14">
     <g id="line2d_23"/>
    </g>
    <g id="xtick_15">
     <g id="line2d_24"/>
    </g>
    <g id="xtick_16">
     <g id="line2d_25"/>
    </g>
    <g id="xtick_17">
     <g id="line2d_26"/>
    </g>
    <g id="xtick_18">
     <g id="line2d_27"/>
    </g>
    <g id="xtick_19">
     <g id="line2d_28"/>
    </g>
    <g id="xtick_20">
     <g id="line2d_29"/>
    </g>
    <g id="xtick_21">
     <g id="line2d_30"/>
    </g>
    <g id="xtick_22">
     <g id="line2d_31"/>
    </g>
    <g id="xtick_23">
     <g id="line2d_32"/>
    </g>
    <g id="xtick_24">
     <g id="line2d_33"/>
    </g>
    <g id="xtick_25">
     <g id="line2d_34"/>
    </g>
    <g id="xtick_26">
     <g id="line2d_35"/>
    </g>
    <g id="xtick_27">
     <g id="line2d_36"/>
    </g>
    <g id="xtick_28">
     <g id="line2d_37"/>
    </g>
    <g id="xtick_29">
     <g id="line2d_38"/>
    </g>
    <g id="xtick_30">
     <g id="line2d_39"/>
    </g>
    <g id="xtick_31">
     <g id="line2d_40"/>
    </g>
    <g id="xtick_32">
     <g id="line2d_41"/>
    </g>
    <g id="xtick_33">
     <g id="line2d_42"/>
    </g>
    <g id="xtick_34">
     <g id="line2d_43"/>
    </g>
    <g id="xtick_35">
     <g id="line2d_44"/>
    </g>
    <g id="xtick_36">
     <g id="line2d_45"/>
    </g>
    <g id="xtick_37">
     <g id="line2d_46"/>
    </g>
    <g id="xtick_38">
     <g id="line2d_47"/>
    </g>
    <g id="xtick_39">
     <g id="line2d_48"/>
    </g>
    <g id="xtick_40">
     <g id="line2d_49"/>
    </g>
    <g id="xtick_41">
     <g id="line2d_50"/>
    </g>
    <g id="xtick_42">
     <g id="line2d_51"/>
    </g>
    <g id="xtick_43">
     <g id="line2d_52"/>
    </g>
    <g id="xtick_44">
     <g id="line2d_53"/>
    </g>
    <g id="xtick_45">
     <g id="line2d_54"/>
    </g>
    <g id="xtick_46">
     <g id="line2d_55"/>
    </g>
    <g id="xtick_47">
     <g id="line2d_56"/>
    </g>
    <g id="xtick_48">
     <g id="line2d_57"/>
    </g>
    <g id="xtick_49">
     <g id="line2d_58"/>
    </g>
    <g id="xtick_50">
     <g id="line2d_59"/>
    </g>
    <g id="xtick_51">
     <g id="line2d_60"/>
    </g>
    <g id="xtick_52">
     <g id="line2d_61"/>
    </g>
    <g id="xtick_53">
     <g id="line2d_62"/>
    </g>
    <g id="xtick_54">
     <g id="line2d_63"/>
    </g>
    <g id="xtick_55">
     <g id="line2d_64"/>
    </g>
    <g id="xtick_56">
     <g id="line2d_65"/>
    </g>
    <g id="xtick_57">
     <g id="line2d_66"/>
    </g>
    <g id="xtick_58">
     <g id="line2d_67"/>
    </g>
    <g id="xtick_59">
     <g id="line2d_68"/>
    </g>
    <g id="xtick_60">
     <g id="line2d_69"/>
    </g>
    <g id="xtick_61">
     <g id="line2d_70"/>
    </g>
    <g id="xtick_62">
     <g id="line2d_71"/>
    </g>
    <g id="xtick_63">
     <g id="line2d_72"/>
    </g>
    <g id="xtick_64">
     <g id="line2d_73"/>
    </g>
    <g id="xtick_65">
     <g id="line2d_74"/>
    </g>
    <g id="xtick_66">
     <g id="line2d_75"/>
    </g>
    <g id="xtick_67">
     <g id="line2d_76"/>
    </g>
    <g id="xtick_68">
     <g id="line2d_77"/>
    </g>
    <g id="xtick_69">
     <g id="line2d_78"/>
    </g>
    <g id="xtick_70">
     <g id="line2d_79"/>
    </g>
    <g id="xtick_71">
     <g id="line2d_80"/>
    </g>
    <g id="xtick_72">
     <g id="line2d_81"/>
    </g>
    <g id="xtick_73">
     <g id="line2d_82"/>
    </g>
    <g id="xtick_74">
     <g id="line2d_83"/>
    </g>
    <g id="xtick_75">
     <g id="line2d_84"/>
    </g>
    <g id="xtick_76">
     <g id="line2d_85"/>
    </g>
    <g id="xtick_77">
     <g id="line2d_86"/>
    </g>
    <g id="xtick_78">
     <g id="line2d_87"/>
    </g>
    <g id="xtick_79">
     <g id="line2d_88"/>
    </g>
    <g id="xtick_80">
     <g id="line2d_89"/>
    </g>
    <g id="xtick_81">
     <g id="line2d_90"/>
    </g>
    <g id="xtick_82">
     <g id="line2d_91"/>
    </g>
    <g id="xtick_83">
     <g id="line2d_92"/>
    </g>
    <g id="xtick_84">
     <g id="line2d_93"/>
    </g>
    <g id="xtick_85">
     <g id="line2d_94"/>
    </g>
    <g id="xtick_86">
     <g id="line2d_95"/>
    </g>
    <g id="xtick_87">
     <g id="line2d_96"/>
    </g>
    <g id="xtick_88">
     <g id="line2d_97"/>
    </g>
    <g id="xtick_89">
     <g id="line2d_98"/>
    </g>
    <g id="xtick_90">
     <g id="line2d_99"/>
    </g>
    <g id="xtick_91">
     <g id="line2d_100"/>
    </g>
    <g id="xtick_92">
     <g id="line2d_101"/>
    </g>
    <g id="xtick_93">
     <g id="line2d_102"/>
    </g>
    <g id="xtick_94">
     <g id="line2d_103"/>
    </g>
    <g id="xtick_95">
     <g id="line2d_104"/>
    </g>
    <g id="xtick_96">
     <g id="line2d_105"/>
    </g>
    <g id="xtick_97">
     <g id="line2d_106"/>
    </g>
    <g id="xtick_98">
     <g id="line2d_107"/>
    </g>
    <g id="xtick_99">
     <g id="line2d_108"/>
    </g>
    <g id="xtick_100">
     <g id="line2d_109"/>
    </g>
    <g id="xtick_101">
     <g id="line2d_110"/>
    </g>
    <g id="xtick_102">
     <g id="line2d_111"/>
    </g>
    <g id="xtick_103">
     <g id="line2d_112"/>
    </g>
    <g id="xtick_104">
     <g id="line2d_113"/>
    </g>
    <g id="xtick_105">
     <g id="line2d_114"/>
    </g>
    <g id="xtick_106">
     <g id="line2d_115"/>
    </g>
    <g id="xtick_107">
     <g id="line2d_116"/>
    </g>
    <g id="xtick_108">
     <g id="line2d_117"/>
    </g>
   </g>
   <g id="matplotlib.axis_2">
    <g id="ytick_1">
     <g id="line2d_118">
      <path clip-path="url(#p2eca948626)" d="M 39.644688 242.208 
L 396.764688 242.208 
" style="fill:none;stroke:#ffffff;stroke-linecap:round;"/>
     </g>
     <g id="line2d_119"/>
     <g id="text_10">
      <!-- 0 -->
      <g style="fill:#262626;" transform="translate(27.08375 245.786906)scale(0.1 -0.1)">
       <use xlink:href="#ArialMT-30"/>
      </g>
     </g>
    </g>
    <g id="ytick_2">
     <g id="line2d_120">
      <path clip-path="url(#p2eca948626)" d="M 39.644688 205.845107 
L 396.764688 205.845107 
" style="fill:none;stroke:#ffffff;stroke-linecap:round;"/>
     </g>
     <g id="line2d_121"/>
     <g id="text_11">
      <!-- 5 -->
      <g style="fill:#262626;" transform="translate(27.08375 209.424013)scale(0.1 -0.1)">
       <use xlink:href="#ArialMT-35"/>
      </g>
     </g>
    </g>
    <g id="ytick_3">
     <g id="line2d_122">
      <path clip-path="url(#p2eca948626)" d="M 39.644688 169.482213 
L 396.764688 169.482213 
" style="fill:none;stroke:#ffffff;stroke-linecap:round;"/>
     </g>
     <g id="line2d_123"/>
     <g id="text_12">
      <!-- 10 -->
      <g style="fill:#262626;" transform="translate(21.522813 173.061119)scale(0.1 -0.1)">
       <use xlink:href="#ArialMT-31"/>
       <use x="55.615234" xlink:href="#ArialMT-30"/>
      </g>
     </g>
    </g>
    <g id="ytick_4">
     <g id="line2d_124">
      <path clip-path="url(#p2eca948626)" d="M 39.644688 133.11932 
L 396.764688 133.11932 
" style="fill:none;stroke:#ffffff;stroke-linecap:round;"/>
     </g>
     <g id="line2d_125"/>
     <g id="text_13">
      <!-- 15 -->
      <g style="fill:#262626;" transform="translate(21.522813 136.698226)scale(0.1 -0.1)">
       <use xlink:href="#ArialMT-31"/>
       <use x="55.615234" xlink:href="#ArialMT-35"/>
      </g>
     </g>
    </g>
    <g id="ytick_5">
     <g id="line2d_126">
      <path clip-path="url(#p2eca948626)" d="M 39.644688 96.756426 
L 396.764688 96.756426 
" style="fill:none;stroke:#ffffff;stroke-linecap:round;"/>
     </g>
     <g id="line2d_127"/>
     <g id="text_14">
      <!-- 20 -->
      <g style="fill:#262626;" transform="translate(21.522813 100.335333)scale(0.1 -0.1)">
       <use xlink:href="#ArialMT-32"/>
       <use x="55.615234" xlink:href="#ArialMT-30"/>
      </g>
     </g>
    </g>
    <g id="ytick_6">
     <g id="line2d_128">
      <path clip-path="url(#p2eca948626)" d="M 39.644688 60.393533 
L 396.764688 60.393533 
" style="fill:none;stroke:#ffffff;stroke-linecap:round;"/>
     </g>
     <g id="line2d_129"/>
     <g id="text_15">
      <!-- 25 -->
      <g style="fill:#262626;" transform="translate(21.522813 63.972439)scale(0.1 -0.1)">
       <use xlink:href="#ArialMT-32"/>
       <use x="55.615234" xlink:href="#ArialMT-35"/>
      </g>
     </g>
    </g>
    <g id="ytick_7">
     <g id="line2d_130">
      <path clip-path="url(#p2eca948626)" d="M 39.644688 24.03064 
L 396.764688 24.03064 
" style="fill:none;stroke:#ffffff;stroke-linecap:round;"/>
     </g>
     <g id="line2d_131"/>
     <g id="text_16">
      <!-- 30 -->
      <g style="fill:#262626;" transform="translate(21.522813 27.609546)scale(0.1 -0.1)">
       <use xlink:href="#ArialMT-33"/>
       <use x="55.615234" xlink:href="#ArialMT-30"/>
      </g>
     </g>
    </g>
    <g id="text_17">
     <!-- Percentage of MAU -->
     <defs>
      <path d="M 7.71875 0 
L 7.71875 71.578125 
L 34.71875 71.578125 
Q 41.84375 71.578125 45.609375 70.90625 
Q 50.875 70.015625 54.4375 67.546875 
Q 58.015625 65.09375 60.1875 60.640625 
Q 62.359375 56.203125 62.359375 50.875 
Q 62.359375 41.75 56.546875 35.421875 
Q 50.734375 29.109375 35.546875 29.109375 
L 17.1875 29.109375 
L 17.1875 0 
z
M 17.1875 37.546875 
L 35.6875 37.546875 
Q 44.875 37.546875 48.734375 40.96875 
Q 52.59375 44.390625 52.59375 50.59375 
Q 52.59375 55.078125 50.3125 58.265625 
Q 48.046875 61.46875 44.34375 62.5 
Q 41.9375 63.140625 35.5 63.140625 
L 17.1875 63.140625 
z
" id="ArialMT-50"/>
      <path d="M 42.09375 16.703125 
L 51.171875 15.578125 
Q 49.03125 7.625 43.21875 3.21875 
Q 37.40625 -1.171875 28.375 -1.171875 
Q 17 -1.171875 10.328125 5.828125 
Q 3.65625 12.84375 3.65625 25.484375 
Q 3.65625 38.578125 10.390625 45.796875 
Q 17.140625 53.03125 27.875 53.03125 
Q 38.28125 53.03125 44.875 45.953125 
Q 51.46875 38.875 51.46875 26.03125 
Q 51.46875 25.25 51.421875 23.6875 
L 12.75 23.6875 
Q 13.234375 15.140625 17.578125 10.59375 
Q 21.921875 6.0625 28.421875 6.0625 
Q 33.25 6.0625 36.671875 8.59375 
Q 40.09375 11.140625 42.09375 16.703125 
z
M 13.234375 30.90625 
L 42.1875 30.90625 
Q 41.609375 37.453125 38.875 40.71875 
Q 34.671875 45.796875 27.984375 45.796875 
Q 21.921875 45.796875 17.796875 41.75 
Q 13.671875 37.703125 13.234375 30.90625 
z
" id="ArialMT-65"/>
      <path d="M 6.5 0 
L 6.5 51.859375 
L 14.40625 51.859375 
L 14.40625 44 
Q 17.4375 49.515625 20 51.265625 
Q 22.5625 53.03125 25.640625 53.03125 
Q 30.078125 53.03125 34.671875 50.203125 
L 31.640625 42.046875 
Q 28.421875 43.953125 25.203125 43.953125 
Q 22.3125 43.953125 20.015625 42.21875 
Q 17.71875 40.484375 16.75 37.40625 
Q 15.28125 32.71875 15.28125 27.15625 
L 15.28125 0 
z
" id="ArialMT-72"/>
      <path d="M 40.4375 19 
L 49.078125 17.875 
Q 47.65625 8.9375 41.8125 3.875 
Q 35.984375 -1.171875 27.484375 -1.171875 
Q 16.84375 -1.171875 10.375 5.78125 
Q 3.90625 12.75 3.90625 25.734375 
Q 3.90625 34.125 6.6875 40.421875 
Q 9.46875 46.734375 15.15625 49.875 
Q 20.84375 53.03125 27.546875 53.03125 
Q 35.984375 53.03125 41.359375 48.75 
Q 46.734375 44.484375 48.25 36.625 
L 39.703125 35.296875 
Q 38.484375 40.53125 35.375 43.15625 
Q 32.28125 45.796875 27.875 45.796875 
Q 21.234375 45.796875 17.078125 41.03125 
Q 12.9375 36.28125 12.9375 25.984375 
Q 12.9375 15.53125 16.9375 10.796875 
Q 20.953125 6.0625 27.390625 6.0625 
Q 32.5625 6.0625 36.03125 9.234375 
Q 39.5 12.40625 40.4375 19 
z
" id="ArialMT-63"/>
      <path d="M 6.59375 0 
L 6.59375 51.859375 
L 14.5 51.859375 
L 14.5 44.484375 
Q 20.21875 53.03125 31 53.03125 
Q 35.6875 53.03125 39.625 51.34375 
Q 43.5625 49.65625 45.515625 46.921875 
Q 47.46875 44.1875 48.25 40.4375 
Q 48.734375 37.984375 48.734375 31.890625 
L 48.734375 0 
L 39.9375 0 
L 39.9375 31.546875 
Q 39.9375 36.921875 38.90625 39.578125 
Q 37.890625 42.234375 35.28125 43.8125 
Q 32.671875 45.40625 29.15625 45.40625 
Q 23.53125 45.40625 19.453125 41.84375 
Q 15.375 38.28125 15.375 28.328125 
L 15.375 0 
z
" id="ArialMT-6e"/>
      <path d="M 25.78125 7.859375 
L 27.046875 0.09375 
Q 23.34375 -0.6875 20.40625 -0.6875 
Q 15.625 -0.6875 12.984375 0.828125 
Q 10.359375 2.34375 9.28125 4.8125 
Q 8.203125 7.28125 8.203125 15.1875 
L 8.203125 45.015625 
L 1.765625 45.015625 
L 1.765625 51.859375 
L 8.203125 51.859375 
L 8.203125 64.703125 
L 16.9375 69.96875 
L 16.9375 51.859375 
L 25.78125 51.859375 
L 25.78125 45.015625 
L 16.9375 45.015625 
L 16.9375 14.703125 
Q 16.9375 10.9375 17.40625 9.859375 
Q 17.875 8.796875 18.921875 8.15625 
Q 19.96875 7.515625 21.921875 7.515625 
Q 23.390625 7.515625 25.78125 7.859375 
z
" id="ArialMT-74"/>
      <path d="M 40.4375 6.390625 
Q 35.546875 2.25 31.03125 0.53125 
Q 26.515625 -1.171875 21.34375 -1.171875 
Q 12.796875 -1.171875 8.203125 3 
Q 3.609375 7.171875 3.609375 13.671875 
Q 3.609375 17.484375 5.34375 20.625 
Q 7.078125 23.78125 9.890625 25.6875 
Q 12.703125 27.59375 16.21875 28.5625 
Q 18.796875 29.25 24.03125 29.890625 
Q 34.671875 31.15625 39.703125 32.90625 
Q 39.75 34.71875 39.75 35.203125 
Q 39.75 40.578125 37.25 42.78125 
Q 33.890625 45.75 27.25 45.75 
Q 21.046875 45.75 18.09375 43.578125 
Q 15.140625 41.40625 13.71875 35.890625 
L 5.125 37.0625 
Q 6.296875 42.578125 8.984375 45.96875 
Q 11.671875 49.359375 16.75 51.1875 
Q 21.828125 53.03125 28.515625 53.03125 
Q 35.15625 53.03125 39.296875 51.46875 
Q 43.453125 49.90625 45.40625 47.53125 
Q 47.359375 45.171875 48.140625 41.546875 
Q 48.578125 39.3125 48.578125 33.453125 
L 48.578125 21.734375 
Q 48.578125 9.46875 49.140625 6.21875 
Q 49.703125 2.984375 51.375 0 
L 42.1875 0 
Q 40.828125 2.734375 40.4375 6.390625 
z
M 39.703125 26.03125 
Q 34.90625 24.078125 25.34375 22.703125 
Q 19.921875 21.921875 17.671875 20.9375 
Q 15.4375 19.96875 14.203125 18.09375 
Q 12.984375 16.21875 12.984375 13.921875 
Q 12.984375 10.40625 15.640625 8.0625 
Q 18.3125 5.71875 23.4375 5.71875 
Q 28.515625 5.71875 32.46875 7.9375 
Q 36.421875 10.15625 38.28125 14.015625 
Q 39.703125 17 39.703125 22.796875 
z
" id="ArialMT-61"/>
      <path d="M 4.984375 -4.296875 
L 13.53125 -5.5625 
Q 14.0625 -9.515625 16.5 -11.328125 
Q 19.78125 -13.765625 25.4375 -13.765625 
Q 31.546875 -13.765625 34.859375 -11.328125 
Q 38.1875 -8.890625 39.359375 -4.5 
Q 40.046875 -1.8125 39.984375 6.78125 
Q 34.234375 0 25.640625 0 
Q 14.9375 0 9.078125 7.71875 
Q 3.21875 15.4375 3.21875 26.21875 
Q 3.21875 33.640625 5.90625 39.90625 
Q 8.59375 46.1875 13.6875 49.609375 
Q 18.796875 53.03125 25.6875 53.03125 
Q 34.859375 53.03125 40.828125 45.609375 
L 40.828125 51.859375 
L 48.921875 51.859375 
L 48.921875 7.03125 
Q 48.921875 -5.078125 46.453125 -10.125 
Q 44 -15.1875 38.640625 -18.109375 
Q 33.296875 -21.046875 25.484375 -21.046875 
Q 16.21875 -21.046875 10.5 -16.875 
Q 4.78125 -12.703125 4.984375 -4.296875 
z
M 12.25 26.859375 
Q 12.25 16.65625 16.296875 11.96875 
Q 20.359375 7.28125 26.46875 7.28125 
Q 32.515625 7.28125 36.609375 11.9375 
Q 40.71875 16.609375 40.71875 26.5625 
Q 40.71875 36.078125 36.5 40.90625 
Q 32.28125 45.75 26.3125 45.75 
Q 20.453125 45.75 16.34375 40.984375 
Q 12.25 36.234375 12.25 26.859375 
z
" id="ArialMT-67"/>
      <path id="ArialMT-20"/>
      <path d="M 3.328125 25.921875 
Q 3.328125 40.328125 11.328125 47.265625 
Q 18.015625 53.03125 27.640625 53.03125 
Q 38.328125 53.03125 45.109375 46.015625 
Q 51.90625 39.015625 51.90625 26.65625 
Q 51.90625 16.65625 48.90625 10.90625 
Q 45.90625 5.171875 40.15625 2 
Q 34.421875 -1.171875 27.640625 -1.171875 
Q 16.75 -1.171875 10.03125 5.8125 
Q 3.328125 12.796875 3.328125 25.921875 
z
M 12.359375 25.921875 
Q 12.359375 15.96875 16.703125 11.015625 
Q 21.046875 6.0625 27.640625 6.0625 
Q 34.1875 6.0625 38.53125 11.03125 
Q 42.875 16.015625 42.875 26.21875 
Q 42.875 35.84375 38.5 40.796875 
Q 34.125 45.75 27.640625 45.75 
Q 21.046875 45.75 16.703125 40.8125 
Q 12.359375 35.890625 12.359375 25.921875 
z
" id="ArialMT-6f"/>
      <path d="M 8.6875 0 
L 8.6875 45.015625 
L 0.921875 45.015625 
L 0.921875 51.859375 
L 8.6875 51.859375 
L 8.6875 57.375 
Q 8.6875 62.59375 9.625 65.140625 
Q 10.890625 68.5625 14.078125 70.671875 
Q 17.28125 72.796875 23.046875 72.796875 
Q 26.765625 72.796875 31.25 71.921875 
L 29.9375 64.265625 
Q 27.203125 64.75 24.75 64.75 
Q 20.75 64.75 19.09375 63.03125 
Q 17.4375 61.328125 17.4375 56.640625 
L 17.4375 51.859375 
L 27.546875 51.859375 
L 27.546875 45.015625 
L 17.4375 45.015625 
L 17.4375 0 
z
" id="ArialMT-66"/>
      <path d="M 7.421875 0 
L 7.421875 71.578125 
L 21.6875 71.578125 
L 38.625 20.90625 
Q 40.96875 13.8125 42.046875 10.296875 
Q 43.265625 14.203125 45.84375 21.78125 
L 62.984375 71.578125 
L 75.734375 71.578125 
L 75.734375 0 
L 66.609375 0 
L 66.609375 59.90625 
L 45.796875 0 
L 37.25 0 
L 16.546875 60.9375 
L 16.546875 0 
z
" id="ArialMT-4d"/>
      <path d="M -0.140625 0 
L 27.34375 71.578125 
L 37.546875 71.578125 
L 66.84375 0 
L 56.0625 0 
L 47.703125 21.6875 
L 17.78125 21.6875 
L 9.90625 0 
z
M 20.515625 29.390625 
L 44.78125 29.390625 
L 37.3125 49.21875 
Q 33.890625 58.25 32.234375 64.0625 
Q 30.859375 57.171875 28.375 50.390625 
z
" id="ArialMT-41"/>
      <path d="M 54.6875 71.578125 
L 64.15625 71.578125 
L 64.15625 30.21875 
Q 64.15625 19.4375 61.71875 13.078125 
Q 59.28125 6.734375 52.90625 2.75 
Q 46.53125 -1.21875 36.1875 -1.21875 
Q 26.125 -1.21875 19.71875 2.25 
Q 13.328125 5.71875 10.59375 12.28125 
Q 7.859375 18.84375 7.859375 30.21875 
L 7.859375 71.578125 
L 17.328125 71.578125 
L 17.328125 30.28125 
Q 17.328125 20.953125 19.0625 16.53125 
Q 20.796875 12.109375 25.015625 9.71875 
Q 29.25 7.328125 35.359375 7.328125 
Q 45.796875 7.328125 50.234375 12.0625 
Q 54.6875 16.796875 54.6875 30.28125 
z
" id="ArialMT-55"/>
     </defs>
     <g style="fill:#262626;" transform="translate(15.207656 172.697516)rotate(-90)scale(0.11 -0.11)">
      <use xlink:href="#ArialMT-50"/>
      <use x="66.699219" xlink:href="#ArialMT-65"/>
      <use x="122.314453" xlink:href="#ArialMT-72"/>
      <use x="155.615234" xlink:href="#ArialMT-63"/>
      <use x="205.615234" xlink:href="#ArialMT-65"/>
      <use x="261.230469" xlink:href="#ArialMT-6e"/>
      <use x="316.845703" xlink:href="#ArialMT-74"/>
      <use x="344.628906" xlink:href="#ArialMT-61"/>
      <use x="400.244141" xlink:href="#ArialMT-67"/>
      <use x="455.859375" xlink:href="#ArialMT-65"/>
      <use x="511.474609" xlink:href="#ArialMT-20"/>
      <use x="539.257812" xlink:href="#ArialMT-6f"/>
      <use x="594.873047" xlink:href="#ArialMT-66"/>
      <use x="622.65625" xlink:href="#ArialMT-20"/>
      <use x="650.439453" xlink:href="#ArialMT-4d"/>
      <use x="733.740234" xlink:href="#ArialMT-41"/>
      <use x="800.439453" xlink:href="#ArialMT-55"/>
     </g>
    </g>
   </g>
   <g id="line2d_132">
    <path clip-path="url(#p2eca948626)" d="M 54.436991 88.011301 
L 57.757107 83.855888 
L 61.43295 79.700475 
L 64.990218 75.545062 
L 68.66606 72.607839 
L 72.223328 70.70014 
L 75.899171 69.888341 
L 79.575014 69.776154 
L 83.132281 68.143387 
L 86.808124 66.396157 
L 90.365391 62.928825 
L 94.041234 57.980433 
L 97.717077 53.605381 
L 101.155769 46.987524 
L 104.831612 43.943483 
L 108.388879 41.523317 
L 112.064722 38.216357 
L 115.62199 36.790897 
L 119.297833 35.500927 
L 122.973676 34.455752 
L 126.530943 33.906121 
L 130.206786 32.335689 
L 133.764053 29.169445 
L 137.439896 26.144961 
L 141.115739 23.374865 
L 144.435855 23.499649 
L 148.111698 19.303908 
L 151.668966 18.040873 
L 155.344809 17.374568 
L 158.902076 19.566474 
L 162.577919 21.756138 
L 166.253762 23.938022 
L 169.811029 23.65373 
L 173.486872 28.165905 
L 177.04414 29.654122 
L 180.719983 30.068471 
L 184.395826 30.138611 
L 187.715942 29.366756 
L 191.391785 28.814039 
L 194.949052 28.964799 
L 198.624895 29.324807 
L 202.182162 29.843821 
L 205.858005 30.693956 
L 209.533848 31.765909 
L 213.091116 35.013565 
L 216.766959 39.121755 
L 220.324226 42.358923 
L 224.000069 45.208574 
L 227.675912 48.558206 
L 230.996028 49.708977 
L 234.671871 50.10631 
L 238.229138 50.008826 
L 241.904981 49.251434 
L 245.462249 48.383665 
L 249.138092 46.854214 
L 252.813935 45.264614 
L 256.371202 44.197287 
L 260.047045 45.317558 
L 263.604312 46.244651 
L 267.280155 46.892034 
L 270.955998 51.349499 
L 274.39469 52.616837 
L 278.070533 54.022957 
L 281.6278 56.315038 
L 285.303643 58.024055 
L 288.860911 59.106295 
L 292.536754 60.778086 
L 296.212597 57.836509 
L 299.769864 58.556626 
L 303.445707 59.25391 
L 307.002974 60.097367 
L 310.678817 60.682349 
L 314.35466 61.293673 
L 317.674776 61.090268 
L 321.350619 61.994049 
L 324.907887 62.3301 
L 328.58373 64.034141 
L 332.140997 64.960975 
L 335.81684 66.013357 
L 339.492683 68.519741 
L 343.04995 71.548494 
L 346.725793 74.577248 
L 350.283061 77.606001 
" style="fill:none;stroke:#1f77b4;stroke-linecap:round;stroke-width:1.75;"/>
   </g>
   <g id="line2d_133">
    <path clip-path="url(#p2eca948626)" d="M 54.436991 152.876476 
L 57.757107 152.578739 
L 61.43295 152.281003 
L 64.990218 151.983267 
L 68.66606 151.604131 
L 72.223328 152.209278 
L 75.899171 153.34173 
L 79.575014 153.423639 
L 83.132281 154.027897 
L 86.808124 153.598142 
L 90.365391 152.443559 
L 94.041234 151.075177 
L 97.717077 149.941504 
L 101.155769 148.942128 
L 104.831612 148.630306 
L 108.388879 148.532635 
L 112.064722 148.195751 
L 115.62199 148.50875 
L 119.297833 148.747623 
L 122.973676 148.974591 
L 126.530943 148.419503 
L 130.206786 148.837422 
L 133.764053 147.582749 
L 137.439896 146.609237 
L 141.115739 145.873935 
L 144.435855 146.236578 
L 148.111698 145.096077 
L 151.668966 143.305187 
L 155.344809 141.603903 
L 158.902076 141.914181 
L 162.577919 142.235554 
L 166.253762 141.983309 
L 169.811029 139.854509 
L 173.486872 139.616632 
L 177.04414 140.167803 
L 180.719983 139.779168 
L 184.395826 138.941614 
L 187.715942 138.137819 
L 191.391785 136.724124 
L 194.949052 136.487833 
L 198.624895 136.72252 
L 202.182162 137.392355 
L 205.858005 137.033525 
L 209.533848 136.763409 
L 213.091116 136.967124 
L 216.766959 138.760732 
L 220.324226 139.794022 
L 224.000069 139.557445 
L 227.675912 139.516148 
L 230.996028 140.108223 
L 234.671871 140.446297 
L 238.229138 139.487873 
L 241.904981 138.34516 
L 245.462249 137.865259 
L 249.138092 138.1421 
L 252.813935 137.369145 
L 256.371202 136.224132 
L 260.047045 136.163255 
L 263.604312 136.818875 
L 267.280155 137.341485 
L 270.955998 139.703406 
L 274.39469 140.037912 
L 278.070533 140.626687 
L 281.6278 141.25789 
L 285.303643 142.169545 
L 288.860911 142.83046 
L 292.536754 143.418119 
L 296.212597 141.234292 
L 299.769864 140.302191 
L 303.445707 139.549739 
L 307.002974 138.900668 
L 310.678817 137.280981 
L 314.35466 136.410739 
L 317.674776 135.362566 
L 321.350619 134.50832 
L 324.907887 134.061173 
L 328.58373 134.274062 
L 332.140997 134.066055 
L 335.81684 134.054412 
L 339.492683 134.308902 
L 343.04995 134.52132 
L 346.725793 134.733739 
L 350.283061 134.946157 
" style="fill:none;stroke:#ff7f0e;stroke-linecap:round;stroke-width:1.75;"/>
   </g>
   <g id="line2d_134">
    <path clip-path="url(#p2eca948626)" d="M 54.436991 168.616477 
L 57.757107 167.398942 
L 61.43295 166.181406 
L 64.990218 164.963871 
L 68.66606 162.60639 
L 72.223328 161.443565 
L 75.899171 160.934429 
L 79.575014 159.546378 
L 83.132281 159.413214 
L 86.808124 157.895737 
L 90.365391 154.822334 
L 94.041234 152.738392 
L 97.717077 150.580035 
L 101.155769 148.922629 
L 104.831612 148.655839 
L 108.388879 147.835449 
L 112.064722 146.674961 
L 115.62199 146.026937 
L 119.297833 144.881247 
L 122.973676 144.138021 
L 126.530943 143.049763 
L 130.206786 142.119471 
L 133.764053 139.257459 
L 137.439896 136.79188 
L 141.115739 135.0853 
L 144.435855 136.040666 
L 148.111698 135.97025 
L 151.668966 135.23849 
L 155.344809 133.394421 
L 158.902076 133.176429 
L 162.577919 131.985422 
L 166.253762 131.000003 
L 169.811029 128.125769 
L 173.486872 125.809644 
L 177.04414 123.147828 
L 180.719983 121.271712 
L 184.395826 119.548835 
L 187.715942 120.13881 
L 191.391785 120.305074 
L 194.949052 120.484136 
L 198.624895 120.36694 
L 202.182162 120.81858 
L 205.858005 120.096302 
L 209.533848 119.657883 
L 213.091116 119.528656 
L 216.766959 119.526517 
L 220.324226 117.775998 
L 224.000069 116.987718 
L 227.675912 116.402944 
L 230.996028 117.265179 
L 234.671871 119.074947 
L 238.229138 119.14715 
L 241.904981 118.414495 
L 245.462249 119.179137 
L 249.138092 119.114208 
L 252.813935 119.027723 
L 256.371202 118.895989 
L 260.047045 118.988406 
L 263.604312 119.133023 
L 267.280155 119.523786 
L 270.955998 122.726995 
L 274.39469 125.090123 
L 278.070533 127.138051 
L 281.6278 128.876159 
L 285.303643 129.841697 
L 288.860911 130.655916 
L 292.536754 132.121198 
L 296.212597 129.562242 
L 299.769864 130.062268 
L 303.445707 129.580586 
L 307.002974 128.605972 
L 310.678817 127.911618 
L 314.35466 127.888166 
L 317.674776 128.355659 
L 321.350619 130.524454 
L 324.907887 131.03189 
L 328.58373 132.358585 
L 332.140997 133.869709 
L 335.81684 134.778916 
L 339.492683 136.913605 
L 343.04995 138.043057 
L 346.725793 139.17251 
L 350.283061 140.301962 
" style="fill:none;stroke:#2ca02c;stroke-linecap:round;stroke-width:1.75;"/>
   </g>
   <g id="line2d_135">
    <path clip-path="url(#p2eca948626)" d="M 54.436991 197.614698 
L 57.757107 196.852727 
L 61.43295 196.090755 
L 64.990218 195.328784 
L 68.66606 194.661781 
L 72.223328 194.43713 
L 75.899171 193.328562 
L 79.575014 192.721036 
L 83.132281 193.240511 
L 86.808124 192.708701 
L 90.365391 192.30479 
L 94.041234 191.049481 
L 97.717077 190.577711 
L 101.155769 190.649371 
L 104.831612 191.502967 
L 108.388879 191.600825 
L 112.064722 191.654849 
L 115.62199 191.477387 
L 119.297833 192.027903 
L 122.973676 191.862133 
L 126.530943 192.120165 
L 130.206786 191.710347 
L 133.764053 191.232252 
L 137.439896 190.430491 
L 141.115739 189.261574 
L 144.435855 189.67102 
L 148.111698 189.476961 
L 151.668966 188.688701 
L 155.344809 187.703942 
L 158.902076 186.955681 
L 162.577919 186.532184 
L 166.253762 185.778915 
L 169.811029 183.835002 
L 173.486872 183.10036 
L 177.04414 182.071706 
L 180.719983 181.388376 
L 184.395826 180.774358 
L 187.715942 180.689499 
L 191.391785 181.044972 
L 194.949052 181.154629 
L 198.624895 180.774072 
L 202.182162 181.066743 
L 205.858005 180.600904 
L 209.533848 180.214681 
L 213.091116 179.279762 
L 216.766959 179.561814 
L 220.324226 179.041016 
L 224.000069 178.415047 
L 227.675912 178.005848 
L 230.996028 178.302699 
L 234.671871 178.757555 
L 238.229138 179.217513 
L 241.904981 178.589529 
L 245.462249 178.758526 
L 249.138092 178.050317 
L 252.813935 176.119268 
L 256.371202 175.226957 
L 260.047045 175.288481 
L 263.604312 175.127235 
L 267.280155 175.052738 
L 270.955998 175.974815 
L 274.39469 177.405792 
L 278.070533 180.194587 
L 281.6278 181.738583 
L 285.303643 182.056727 
L 288.860911 182.479018 
L 292.536754 183.223591 
L 296.212597 182.455168 
L 299.769864 182.477265 
L 303.445707 182.489282 
L 307.002974 181.911019 
L 310.678817 181.719311 
L 314.35466 181.972338 
L 317.674776 182.04311 
L 321.350619 182.325667 
L 324.907887 182.501639 
L 328.58373 182.503165 
L 332.140997 182.356653 
L 335.81684 182.367838 
L 339.492683 181.988315 
L 343.04995 181.565445 
L 346.725793 181.142575 
L 350.283061 180.719704 
" style="fill:none;stroke:#d62728;stroke-linecap:round;stroke-width:1.75;"/>
   </g>
   <g id="line2d_136">
    <path clip-path="url(#p2eca948626)" d="M 54.436991 182.053797 
L 57.757107 182.483973 
L 61.43295 182.914148 
L 64.990218 183.344324 
L 68.66606 182.197345 
L 72.223328 182.682981 
L 75.899171 184.300652 
L 79.575014 184.469521 
L 83.132281 185.569047 
L 86.808124 185.408498 
L 90.365391 184.011732 
L 94.041234 184.109735 
L 97.717077 183.376657 
L 101.155769 182.515794 
L 104.831612 182.520589 
L 108.388879 181.678348 
L 112.064722 181.566415 
L 115.62199 182.349032 
L 119.297833 182.827417 
L 122.973676 182.817222 
L 126.530943 182.462536 
L 130.206786 182.394506 
L 133.764053 182.833683 
L 137.439896 182.004794 
L 141.115739 181.38162 
L 144.435855 182.020385 
L 148.111698 181.930896 
L 151.668966 180.728045 
L 155.344809 179.447691 
L 158.902076 179.454234 
L 162.577919 179.301613 
L 166.253762 177.692792 
L 169.811029 175.770321 
L 173.486872 174.489387 
L 177.04414 174.715523 
L 180.719983 174.878807 
L 184.395826 174.607537 
L 187.715942 174.784982 
L 191.391785 175.820731 
L 194.949052 176.856823 
L 198.624895 177.865512 
L 202.182162 179.051461 
L 205.858005 179.569338 
L 209.533848 179.376194 
L 213.091116 180.178589 
L 216.766959 182.216017 
L 220.324226 182.77505 
L 224.000069 184.041599 
L 227.675912 184.714753 
L 230.996028 185.582901 
L 234.671871 186.859976 
L 238.229138 187.042025 
L 241.904981 186.620948 
L 245.462249 186.983143 
L 249.138092 187.119965 
L 252.813935 186.917912 
L 256.371202 186.901024 
L 260.047045 187.609377 
L 263.604312 187.916496 
L 267.280155 188.094527 
L 270.955998 189.548493 
L 274.39469 190.006908 
L 278.070533 191.184072 
L 281.6278 192.114804 
L 285.303643 192.535542 
L 288.860911 193.215425 
L 292.536754 194.282243 
L 296.212597 193.478199 
L 299.769864 193.909845 
L 303.445707 194.089352 
L 307.002974 194.200079 
L 310.678817 194.522744 
L 314.35466 195.050817 
L 317.674776 195.326758 
L 321.350619 196.085943 
L 324.907887 196.648535 
L 328.58373 197.064916 
L 332.140997 197.379459 
L 335.81684 197.540575 
L 339.492683 197.837709 
L 343.04995 198.000436 
L 346.725793 198.163164 
L 350.283061 198.325891 
" style="fill:none;stroke:#9467bd;stroke-linecap:round;stroke-width:1.75;"/>
   </g>
   <g id="line2d_137">
    <path clip-path="url(#p2eca948626)" d="M 54.436991 220.865924 
L 57.757107 220.452179 
L 61.43295 220.038434 
L 64.990218 219.624689 
L 68.66606 219.226065 
L 72.223328 218.719089 
L 75.899171 218.865758 
L 79.575014 218.775024 
L 83.132281 218.710247 
L 86.808124 218.533063 
L 90.365391 218.050252 
L 94.041234 217.557011 
L 97.717077 217.220688 
L 101.155769 216.470723 
L 104.831612 216.245567 
L 108.388879 216.321214 
L 112.064722 216.14237 
L 115.62199 216.05005 
L 119.297833 215.96603 
L 122.973676 216.052326 
L 126.530943 215.962522 
L 130.206786 215.994126 
L 133.764053 215.651549 
L 137.439896 215.142919 
L 141.115739 214.807949 
L 144.435855 215.042746 
L 148.111698 214.971213 
L 151.668966 214.817528 
L 155.344809 214.409644 
L 158.902076 214.175983 
L 162.577919 214.063988 
L 166.253762 213.955541 
L 169.811029 213.135442 
L 173.486872 212.675126 
L 177.04414 212.226382 
L 180.719983 211.599992 
L 184.395826 210.888669 
L 187.715942 210.47792 
L 191.391785 209.949357 
L 194.949052 209.624362 
L 198.624895 209.095744 
L 202.182162 208.606198 
L 205.858005 207.4097 
L 209.533848 206.940776 
L 213.091116 206.224593 
L 216.766959 205.577798 
L 220.324226 204.685517 
L 224.000069 204.02907 
L 227.675912 203.192792 
L 230.996028 203.572927 
L 234.671871 203.465063 
L 238.229138 202.969663 
L 241.904981 202.689031 
L 245.462249 202.603689 
L 249.138092 202.502437 
L 252.813935 202.499746 
L 256.371202 202.058836 
L 260.047045 202.089392 
L 263.604312 202.491414 
L 267.280155 202.546342 
L 270.955998 203.556765 
L 274.39469 203.968293 
L 278.070533 204.40233 
L 281.6278 204.129738 
L 285.303643 204.217286 
L 288.860911 204.192632 
L 292.536754 204.477391 
L 296.212597 203.634893 
L 299.769864 203.259685 
L 303.445707 203.016057 
L 307.002974 203.568288 
L 310.678817 203.467737 
L 314.35466 203.473633 
L 317.674776 203.547483 
L 321.350619 203.892829 
L 324.907887 204.281994 
L 328.58373 204.807821 
L 332.140997 204.74424 
L 335.81684 204.739402 
L 339.492683 205.283483 
L 343.04995 205.387688 
L 346.725793 205.491893 
L 350.283061 205.596098 
" style="fill:none;stroke:#e377c2;stroke-linecap:round;stroke-width:1.75;"/>
   </g>
   <g id="patch_3">
    <path d="M 39.644688 242.208 
L 39.644688 7.2 
" style="fill:none;"/>
   </g>
   <g id="patch_4">
    <path d="M 396.764688 242.208 
L 396.764688 7.2 
" style="fill:none;"/>
   </g>
   <g id="patch_5">
    <path d="M 39.644687 242.208 
L 396.764687 242.208 
" style="fill:none;"/>
   </g>
   <g id="patch_6">
    <path d="M 39.644687 7.2 
L 396.764687 7.2 
" style="fill:none;"/>
   </g>
   <g id="text_18">
    <!-- JavaScript -->
    <defs>
     <path d="M 2.875 20.3125 
L 11.421875 21.484375 
Q 11.765625 13.28125 14.5 10.25 
Q 17.234375 7.234375 22.078125 7.234375 
Q 25.640625 7.234375 28.21875 8.859375 
Q 30.8125 10.5 31.78125 13.296875 
Q 32.765625 16.109375 32.765625 22.265625 
L 32.765625 71.578125 
L 42.234375 71.578125 
L 42.234375 22.796875 
Q 42.234375 13.8125 40.0625 8.875 
Q 37.890625 3.953125 33.171875 1.359375 
Q 28.46875 -1.21875 22.125 -1.21875 
Q 12.703125 -1.21875 7.6875 4.203125 
Q 2.6875 9.625 2.875 20.3125 
z
" id="ArialMT-4a"/>
     <path d="M 21 0 
L 1.265625 51.859375 
L 10.546875 51.859375 
L 21.6875 20.796875 
Q 23.484375 15.765625 25 10.359375 
Q 26.171875 14.453125 28.265625 20.21875 
L 39.796875 51.859375 
L 48.828125 51.859375 
L 29.203125 0 
z
" id="ArialMT-76"/>
     <path d="M 4.5 23 
L 13.421875 23.78125 
Q 14.0625 18.40625 16.375 14.96875 
Q 18.703125 11.53125 23.578125 9.40625 
Q 28.46875 7.28125 34.578125 7.28125 
Q 39.984375 7.28125 44.140625 8.890625 
Q 48.296875 10.5 50.3125 13.296875 
Q 52.34375 16.109375 52.34375 19.4375 
Q 52.34375 22.796875 50.390625 25.3125 
Q 48.4375 27.828125 43.953125 29.546875 
Q 41.0625 30.671875 31.203125 33.03125 
Q 21.34375 35.40625 17.390625 37.5 
Q 12.25 40.1875 9.734375 44.15625 
Q 7.234375 48.140625 7.234375 53.078125 
Q 7.234375 58.5 10.296875 63.203125 
Q 13.375 67.921875 19.28125 70.359375 
Q 25.203125 72.796875 32.421875 72.796875 
Q 40.375 72.796875 46.453125 70.234375 
Q 52.546875 67.671875 55.8125 62.6875 
Q 59.078125 57.71875 59.328125 51.421875 
L 50.25 50.734375 
Q 49.515625 57.515625 45.28125 60.984375 
Q 41.0625 64.453125 32.8125 64.453125 
Q 24.21875 64.453125 20.28125 61.296875 
Q 16.359375 58.15625 16.359375 53.71875 
Q 16.359375 49.859375 19.140625 47.359375 
Q 21.875 44.875 33.421875 42.265625 
Q 44.96875 39.65625 49.265625 37.703125 
Q 55.515625 34.8125 58.484375 30.390625 
Q 61.46875 25.984375 61.46875 20.21875 
Q 61.46875 14.5 58.203125 9.4375 
Q 54.9375 4.390625 48.796875 1.578125 
Q 42.671875 -1.21875 35.015625 -1.21875 
Q 25.296875 -1.21875 18.71875 1.609375 
Q 12.15625 4.4375 8.421875 10.125 
Q 4.6875 15.828125 4.5 23 
z
" id="ArialMT-53"/>
     <path d="M 6.640625 61.46875 
L 6.640625 71.578125 
L 15.4375 71.578125 
L 15.4375 61.46875 
z
M 6.640625 0 
L 6.640625 51.859375 
L 15.4375 51.859375 
L 15.4375 0 
z
" id="ArialMT-69"/>
     <path d="M 6.59375 -19.875 
L 6.59375 51.859375 
L 14.59375 51.859375 
L 14.59375 45.125 
Q 17.4375 49.078125 21 51.046875 
Q 24.5625 53.03125 29.640625 53.03125 
Q 36.28125 53.03125 41.359375 49.609375 
Q 46.4375 46.1875 49.015625 39.953125 
Q 51.609375 33.734375 51.609375 26.3125 
Q 51.609375 18.359375 48.75 11.984375 
Q 45.90625 5.609375 40.453125 2.21875 
Q 35.015625 -1.171875 29 -1.171875 
Q 24.609375 -1.171875 21.109375 0.6875 
Q 17.625 2.546875 15.375 5.375 
L 15.375 -19.875 
z
M 14.546875 25.640625 
Q 14.546875 15.625 18.59375 10.84375 
Q 22.65625 6.0625 28.421875 6.0625 
Q 34.28125 6.0625 38.453125 11.015625 
Q 42.625 15.96875 42.625 26.375 
Q 42.625 36.28125 38.546875 41.203125 
Q 34.46875 46.140625 28.8125 46.140625 
Q 23.1875 46.140625 18.859375 40.890625 
Q 14.546875 35.640625 14.546875 25.640625 
z
" id="ArialMT-70"/>
    </defs>
    <g style="fill:#262626;" transform="translate(350.283061 77.606001)scale(0.08 -0.08)">
     <use xlink:href="#ArialMT-4a"/>
     <use x="50" xlink:href="#ArialMT-61"/>
     <use x="105.615234" xlink:href="#ArialMT-76"/>
     <use x="155.615234" xlink:href="#ArialMT-61"/>
     <use x="211.230469" xlink:href="#ArialMT-53"/>
     <use x="277.929688" xlink:href="#ArialMT-63"/>
     <use x="327.929688" xlink:href="#ArialMT-72"/>
     <use x="361.230469" xlink:href="#ArialMT-69"/>
     <use x="383.447266" xlink:href="#ArialMT-70"/>
     <use x="439.0625" xlink:href="#ArialMT-74"/>
    </g>
   </g>
   <g id="text_19">
    <!-- Python -->
    <defs>
     <path d="M 6.203125 -19.96875 
L 5.21875 -11.71875 
Q 8.109375 -12.5 10.25 -12.5 
Q 13.1875 -12.5 14.9375 -11.515625 
Q 16.703125 -10.546875 17.828125 -8.796875 
Q 18.65625 -7.46875 20.515625 -2.25 
Q 20.75 -1.515625 21.296875 -0.09375 
L 1.609375 51.859375 
L 11.078125 51.859375 
L 21.875 21.828125 
Q 23.96875 16.109375 25.640625 9.8125 
Q 27.15625 15.875 29.25 21.625 
L 40.328125 51.859375 
L 49.125 51.859375 
L 29.390625 -0.875 
Q 26.21875 -9.421875 24.46875 -12.640625 
Q 22.125 -17 19.09375 -19.015625 
Q 16.0625 -21.046875 11.859375 -21.046875 
Q 9.328125 -21.046875 6.203125 -19.96875 
z
" id="ArialMT-79"/>
     <path d="M 6.59375 0 
L 6.59375 71.578125 
L 15.375 71.578125 
L 15.375 45.90625 
Q 21.53125 53.03125 30.90625 53.03125 
Q 36.671875 53.03125 40.921875 50.75 
Q 45.171875 48.484375 47 44.484375 
Q 48.828125 40.484375 48.828125 32.859375 
L 48.828125 0 
L 40.046875 0 
L 40.046875 32.859375 
Q 40.046875 39.453125 37.1875 42.453125 
Q 34.328125 45.453125 29.109375 45.453125 
Q 25.203125 45.453125 21.75 43.421875 
Q 18.3125 41.40625 16.84375 37.9375 
Q 15.375 34.46875 15.375 28.375 
L 15.375 0 
z
" id="ArialMT-68"/>
    </defs>
    <g style="fill:#262626;" transform="translate(350.283061 134.946157)scale(0.08 -0.08)">
     <use xlink:href="#ArialMT-50"/>
     <use x="66.699219" xlink:href="#ArialMT-79"/>
     <use x="116.699219" xlink:href="#ArialMT-74"/>
     <use x="144.482422" xlink:href="#ArialMT-68"/>
     <use x="200.097656" xlink:href="#ArialMT-6f"/>
     <use x="255.712891" xlink:href="#ArialMT-6e"/>
    </g>
   </g>
   <g id="text_20">
    <!-- Java -->
    <g style="fill:#262626;" transform="translate(350.283061 140.301962)scale(0.08 -0.08)">
     <use xlink:href="#ArialMT-4a"/>
     <use x="50" xlink:href="#ArialMT-61"/>
     <use x="105.615234" xlink:href="#ArialMT-76"/>
     <use x="155.615234" xlink:href="#ArialMT-61"/>
    </g>
   </g>
   <g id="text_21">
    <!-- C++ -->
    <defs>
     <path d="M 58.796875 25.09375 
L 68.265625 22.703125 
Q 65.28125 11.03125 57.546875 4.90625 
Q 49.8125 -1.21875 38.625 -1.21875 
Q 27.046875 -1.21875 19.796875 3.484375 
Q 12.546875 8.203125 8.765625 17.140625 
Q 4.984375 26.078125 4.984375 36.328125 
Q 4.984375 47.515625 9.25 55.828125 
Q 13.53125 64.15625 21.40625 68.46875 
Q 29.296875 72.796875 38.765625 72.796875 
Q 49.515625 72.796875 56.828125 67.328125 
Q 64.15625 61.859375 67.046875 51.953125 
L 57.71875 49.75 
Q 55.21875 57.5625 50.484375 61.125 
Q 45.75 64.703125 38.578125 64.703125 
Q 30.328125 64.703125 24.78125 60.734375 
Q 19.234375 56.78125 16.984375 50.109375 
Q 14.75 43.453125 14.75 36.375 
Q 14.75 27.25 17.40625 20.4375 
Q 20.0625 13.625 25.671875 10.25 
Q 31.296875 6.890625 37.84375 6.890625 
Q 45.796875 6.890625 51.3125 11.46875 
Q 56.84375 16.0625 58.796875 25.09375 
z
" id="ArialMT-43"/>
     <path d="M 25.046875 11.578125 
L 25.046875 31.203125 
L 5.5625 31.203125 
L 5.5625 39.40625 
L 25.046875 39.40625 
L 25.046875 58.890625 
L 33.34375 58.890625 
L 33.34375 39.40625 
L 52.828125 39.40625 
L 52.828125 31.203125 
L 33.34375 31.203125 
L 33.34375 11.578125 
z
" id="ArialMT-2b"/>
    </defs>
    <g style="fill:#262626;" transform="translate(350.283061 180.719704)scale(0.08 -0.08)">
     <use xlink:href="#ArialMT-43"/>
     <use x="72.216797" xlink:href="#ArialMT-2b"/>
     <use x="130.615234" xlink:href="#ArialMT-2b"/>
    </g>
   </g>
   <g id="text_22">
    <!-- C -->
    <g style="fill:#262626;" transform="translate(350.283061 198.325891)scale(0.08 -0.08)">
     <use xlink:href="#ArialMT-43"/>
    </g>
   </g>
   <g id="text_23">
    <!-- C# -->
    <defs>
     <path d="M 5.03125 -1.21875 
L 9.28125 19.578125 
L 1.03125 19.578125 
L 1.03125 26.859375 
L 10.75 26.859375 
L 14.359375 44.578125 
L 1.03125 44.578125 
L 1.03125 51.859375 
L 15.828125 51.859375 
L 20.0625 72.796875 
L 27.390625 72.796875 
L 23.140625 51.859375 
L 38.53125 51.859375 
L 42.78125 72.796875 
L 50.140625 72.796875 
L 45.90625 51.859375 
L 54.34375 51.859375 
L 54.34375 44.578125 
L 44.4375 44.578125 
L 40.765625 26.859375 
L 54.34375 26.859375 
L 54.34375 19.578125 
L 39.3125 19.578125 
L 35.0625 -1.21875 
L 27.734375 -1.21875 
L 31.9375 19.578125 
L 16.609375 19.578125 
L 12.359375 -1.21875 
z
M 18.0625 26.859375 
L 33.40625 26.859375 
L 37.0625 44.578125 
L 21.6875 44.578125 
z
" id="ArialMT-23"/>
    </defs>
    <g style="fill:#262626;" transform="translate(350.283061 205.596098)scale(0.08 -0.08)">
     <use xlink:href="#ArialMT-43"/>
     <use x="72.216797" xlink:href="#ArialMT-23"/>
    </g>
   </g>
  </g>
 </g>
 <defs>
  <clipPath id="p2eca948626">
   <rect height="235.008" width="357.12" x="39.644688" y="7.2"/>
  </clipPath>
 </defs>
</svg>
